<?xml version="1.0" encoding="UTF-8"?>
<svg xmlns="http://www.w3.org/2000/svg" xmlns:xlink="http://www.w3.org/1999/xlink" width="40px" height="40px" viewBox="0 0 40 40" version="1.1">
<g id="surface1">
<path style=" stroke:none;fill-rule:nonzero;fill:rgb(100%,65.098039%,30.196078%);fill-opacity:1;" d="M 39.355469 29.78125 L 39.355469 21.289062 L 38.03125 21.289062 L 32.902344 37.246094 L 27.773438 21.289062 L 25.128906 21.289062 L 20 37.246094 L 14.871094 21.289062 L 12.226562 21.289062 L 7.097656 37.246094 L 1.96875 21.289062 L 0.644531 21.289062 L 0.644531 29.78125 L 3.835938 39.355469 L 10.359375 39.355469 L 13.546875 29.78125 L 16.738281 39.355469 L 23.261719 39.355469 L 26.453125 29.78125 L 29.640625 39.355469 L 36.164062 39.355469 Z M 39.355469 29.78125 "/>
<path style=" stroke:none;fill-rule:nonzero;fill:rgb(20%,20%,20%);fill-opacity:1;" d="M 38.707031 16.773438 L 29.664062 16.773438 C 29.933594 15.453125 29.363281 14.046875 28.132812 13.335938 C 27.257812 12.832031 26.191406 12.777344 25.265625 13.171875 L 23.871094 12.367188 L 39.03125 3.613281 C 39.957031 3.078125 40.273438 1.890625 39.742188 0.96875 C 39.480469 0.523438 39.0625 0.199219 38.566406 0.0664062 C 38.066406 -0.0664062 37.542969 0.00390625 37.097656 0.261719 L 20 10.132812 L 2.90625 0.261719 C 2.457031 0.00390625 1.933594 -0.0664062 1.433594 0.0664062 C 0.9375 0.199219 0.519531 0.523438 0.261719 0.96875 C -0.273438 1.890625 0.0429688 3.078125 0.96875 3.613281 L 16.128906 12.367188 L 14.738281 13.171875 C 13.808594 12.777344 12.742188 12.832031 11.867188 13.335938 C 11.121094 13.765625 10.589844 14.464844 10.367188 15.296875 C 10.234375 15.789062 10.234375 16.289062 10.332031 16.773438 L 1.289062 16.773438 C 0.578125 16.773438 0 17.355469 0 18.066406 L 0 40 L 40 40 L 40 18.066406 C 40 17.351562 39.421875 16.773438 38.707031 16.773438 Z M 25.238281 14.644531 L 25.558594 14.460938 C 26.167969 14.109375 26.890625 14.109375 27.488281 14.453125 C 28.410156 14.988281 28.730469 16.171875 28.195312 17.097656 C 27.664062 18.019531 26.476562 18.339844 25.550781 17.804688 C 24.953125 17.460938 24.597656 16.835938 24.59375 16.132812 L 24.59375 15.761719 L 21.289062 13.855469 L 22.582031 13.109375 Z M 20 14.601562 L 23.328125 16.523438 C 23.339844 16.605469 23.355469 16.691406 23.375 16.773438 L 16.625 16.773438 C 16.640625 16.691406 16.660156 16.605469 16.671875 16.523438 Z M 1.613281 2.496094 C 1.304688 2.316406 1.199219 1.921875 1.378906 1.613281 C 1.464844 1.464844 1.601562 1.359375 1.769531 1.3125 C 1.933594 1.269531 2.109375 1.292969 2.257812 1.378906 L 18.710938 10.875 L 17.421875 11.621094 Z M 12.515625 14.453125 C 12.808594 14.28125 13.136719 14.195312 13.464844 14.195312 C 13.796875 14.195312 14.132812 14.285156 14.441406 14.460938 L 14.761719 14.644531 L 37.742188 1.378906 C 37.890625 1.289062 38.066406 1.269531 38.230469 1.3125 C 38.398438 1.359375 38.539062 1.464844 38.621094 1.613281 C 38.800781 1.921875 38.695312 2.316406 38.386719 2.496094 L 15.40625 15.761719 L 15.40625 16.132812 C 15.402344 16.835938 15.046875 17.460938 14.449219 17.804688 C 13.523438 18.339844 12.339844 18.019531 11.804688 17.097656 C 11.273438 16.171875 11.589844 14.988281 12.515625 14.453125 Z M 1.289062 18.066406 L 10.902344 18.066406 C 11.527344 18.894531 12.492188 19.355469 13.488281 19.355469 C 14.035156 19.355469 14.585938 19.214844 15.09375 18.921875 C 15.472656 18.703125 15.792969 18.40625 16.050781 18.066406 L 23.953125 18.066406 C 24.207031 18.40625 24.527344 18.703125 24.90625 18.921875 C 25.414062 19.214844 25.964844 19.355469 26.515625 19.355469 C 27.507812 19.355469 28.472656 18.894531 29.097656 18.066406 L 38.707031 18.066406 L 38.707031 20.644531 L 1.289062 20.644531 Z M 38.707031 38.710938 L 1.289062 38.710938 L 1.289062 21.9375 L 38.707031 21.9375 Z M 38.707031 38.710938 "/>
</g>
</svg>
